<svg xmlns="http://www.w3.org/2000/svg" width="82" height="66">
    <path fill="#737274" fill-rule="evenodd" d="M18.18 65.829c4.84 0 8.982-1.612 12.43-4.84 3.444-3.225 5.17-7.185 5.17-11.88 0-5.865-2.496-10.56-7.48-14.08L37.32.709H20.6L6.3 30.189c-2.056 4.4-3.52 7.995-4.4 10.78-.88 2.787-1.32 5.427-1.32 7.92 0 4.84 1.684 8.875 5.06 12.1 3.372 3.228 7.552 4.84 12.54 4.84zm43.78 0c4.84 0 8.982-1.612 12.43-4.84 3.444-3.225 5.17-7.185 5.17-11.88 0-5.865-2.496-10.56-7.48-14.08L81.1.709H64.38l-14.3 29.48c-2.056 4.4-3.52 7.995-4.4 10.78-.88 2.787-1.32 5.427-1.32 7.92 0 4.84 1.684 8.875 5.06 12.1 3.372 3.228 7.552 4.84 12.54 4.84z" opacity=".102"/>
</svg>
