<svg xmlns="http://www.w3.org/2000/svg" width="112.2" height="112.2">
  <path d="M56.1 0a56.1 56.1 0 1 0 56.1 56.1A56.1 56.1 0 0 0 56.1 0zm32.1 80.7l-9.8.1s-2.1.5-4.9-1.5c-3.7-2.5-7.1-9-9.8-8.2C60.9 72 61 78 61 78a3.2 3.2 0 0 1-.6 2 3.7 3.7 0 0 1-2 .8H54s-9.7.6-18.3-8.3c-9.3-9.7-17.6-29-17.6-29s-.4-1.3 0-1.9c.7-.7 2.2-.7 2.2-.7H31a4.6 4.6 0 0 1 1.7.6 3.3 3.3 0 0 1 .9 1.2 70.6 70.6 0 0 0 4 8.2c4.3 7.6 6.4 9.3 7.9 8.5 2.1-1.2 1.5-10.8 1.5-10.8s0-3.4-1.1-5a5 5 0 0 0-3.3-1.6c-.6-.1.4-1.5 1.7-2.1 1.9-1 5.2-1 9.2-1a19 19 0 0 1 5.1.6c3.7.9 2.4 4.2 2.4 12.4 0 2.6-.4 6.2 1.4 7.4.8.5 2.8.1 7.7-8.3a64.1 64.1 0 0 0 4.1-8.6 3.1 3.1 0 0 1 1-1.2 2.5 2.5 0 0 1 1.4-.3h11.1s3.4-.4 3.9 1c.6 1.7-1.3 5.3-5.8 11.4-7.4 9.9-8.2 9-2 14.7 5.8 5.4 7 8.1 7.2 8.4 2.5 4-2.7 4.4-2.7 4.4z" fill="#4d76a1"/>
</svg>
